<?xml version="1.0" encoding="utf-8"?>
<!-- Generator: Adobe Illustrator 22.0.0, SVG Export Plug-In . SVG Version: 6.00 Build 0)  -->
<svg version="1.1" id="Layer_1" xmlns="http://www.w3.org/2000/svg" xmlns:xlink="http://www.w3.org/1999/xlink" x="0px" y="0px"
	 viewBox="0 0 600 50" style="enable-background:new 0 0 600 50;" xml:space="preserve">
<style type="text/css">
	.st0{fill:url(#SVGID_1_);}
	.st1{fill:url(#SVGID_2_);}
	.st2{fill:url(#SVGID_3_);}
	.st3{fill:url(#SVGID_4_);}
	.st4{fill:url(#SVGID_5_);}
	.st5{fill:url(#SVGID_6_);}
	.st6{fill:url(#SVGID_7_);}
	.st7{fill:url(#SVGID_8_);}
	.st8{fill:url(#SVGID_9_);}
	.st9{fill:url(#SVGID_10_);}
	.st10{fill:url(#SVGID_11_);}
	.st11{fill:url(#SVGID_12_);}
	.st12{fill:url(#SVGID_13_);}
	.st13{fill:url(#SVGID_14_);}
	.st14{fill:url(#SVGID_15_);}
	.st15{fill:url(#SVGID_16_);}
	.st16{fill:url(#SVGID_17_);}
	.st17{fill:url(#SVGID_18_);}
	.st18{fill:url(#SVGID_19_);}
	.st19{fill:url(#SVGID_20_);}
	.st20{fill:url(#SVGID_21_);}
	.st21{fill:url(#SVGID_22_);}
	.st22{fill:url(#SVGID_23_);}
	.st23{fill:url(#SVGID_24_);}
	.st24{fill:url(#SVGID_25_);}
	.st25{fill:url(#SVGID_26_);}
	.st26{fill:url(#SVGID_27_);}
	.st27{fill:url(#SVGID_28_);}
	.st28{fill:url(#SVGID_29_);}
	.st29{fill:url(#SVGID_30_);}
	.st30{fill:url(#SVGID_31_);}
	.st31{fill:url(#SVGID_32_);}
</style>
<g>
	<g>
		<linearGradient id="SVGID_1_" gradientUnits="userSpaceOnUse" x1="7.1719" y1="26.7478" x2="595.6563" y2="26.7478">
			<stop  offset="0" style="stop-color:#BE9A4F"/>
			<stop  offset="0.414" style="stop-color:#5D2100"/>
			<stop  offset="0.6899" style="stop-color:#814B14"/>
			<stop  offset="0.9173" style="stop-color:#DCB663"/>
			<stop  offset="1" style="stop-color:#D8AA3C"/>
		</linearGradient>
		<path class="st0" d="M22,34.4c-0.3-1-0.4-2.3-0.5-3.7c-0.1-1.5-0.2-4.5-0.3-9.2c-1,2.1-2,3.9-3.1,5.6c-1.6,2.5-2.7,4.5-3.2,5.9
			c0,0.2,0.1,0.3,0.1,0.5c0,0.6-0.3,1.2-0.8,1.6c-0.6,0.5-1.2,0.7-2,0.7c-0.8,0-1.4-0.2-1.8-0.6s-0.6-1-0.6-1.7l-0.2-1.9L9.1,26
			c-0.1-1.5-0.3-3.1-0.6-4.9c-0.3-1.8-0.7-4.2-1.3-7.4c0-0.2-0.1-0.3-0.1-0.5c0-0.6,0.3-1.1,0.8-1.6c0.5-0.5,1.1-0.7,1.8-0.7
			c0.5,0,0.9,0.1,1.2,0.4c0.3,0.2,0.6,0.7,0.9,1.5c0.2,0.7,0.5,2.4,0.8,5.1c0.3,2.7,0.6,5.6,0.8,9c1.2-2.1,2.4-4.5,3.7-7.2
			c1.6-3.4,2.8-5.6,3.8-6.7c1-1,1.7-1.5,2.4-1.5c0.6,0,1.1,0.2,1.6,0.7c0.4,0.5,0.6,1.8,0.6,3.8c0,0.4,0,1.5-0.1,3.1
			c-0.1,2,0.1,5.2,0.4,9.8c1-1.6,2.2-3.8,3.7-6.6l2.5-4.6c0.1-0.3,0.6-1.2,1.3-2.9c1-2.6,2.3-3.9,3.7-3.9c0.6,0,1.1,0.2,1.4,0.5
			c0.3,0.3,0.5,0.7,0.5,1.3c0,0.2,0,0.5-0.1,0.7c-0.1,0.3-0.4,0.9-0.9,1.8c-0.5,0.9-1,1.8-1.4,2.7c-0.4,0.9-1,1.9-1.6,3.1
			c-0.7,1.2-1.3,2.2-1.9,3.2l-3.3,5.5c-0.7,1.1-1.2,2-1.6,2.8c-0.9,1.8-1.7,2.8-2.2,3.3s-1.2,0.7-1.9,0.7c-0.6,0-1.2-0.2-1.6-0.6
			C22.1,35.5,21.9,35,22,34.4z"/>
		<linearGradient id="SVGID_2_" gradientUnits="userSpaceOnUse" x1="7.1719" y1="26.7478" x2="595.6563" y2="26.7478">
			<stop  offset="0" style="stop-color:#BE9A4F"/>
			<stop  offset="0.414" style="stop-color:#5D2100"/>
			<stop  offset="0.6899" style="stop-color:#814B14"/>
			<stop  offset="0.9173" style="stop-color:#DCB663"/>
			<stop  offset="1" style="stop-color:#D8AA3C"/>
		</linearGradient>
		<path class="st1" d="M41.8,30.2c0.9,1.1,2.2,1.6,4,1.6c1.4,0,2.6-0.3,3.7-0.9c1-0.5,1.7-0.8,2.2-0.8c0.9,0,1.4,0.4,1.4,1.2
			c0,1.2-0.8,2.2-2.5,3c-1.6,0.8-3.4,1.2-5.4,1.2c-2.4,0-4.3-0.5-5.6-1.6s-2-2.5-2-4.4c0-2.6,0.9-5,2.7-7.4c1.8-2.4,4.2-3.6,7.2-3.6
			c2,0,3.5,0.3,4.6,1c1.1,0.7,1.6,1.6,1.6,2.8c0,1.1-0.4,2.1-1.3,2.9c-0.9,0.8-2.5,1.7-5,2.6L41.8,30.2z M42,26.2l3.8-1.5
			c1.4-0.6,2.6-1.2,3.6-1.8c-0.6-0.4-1.5-0.6-2.6-0.6C44.9,22.3,43.3,23.6,42,26.2z"/>
		<linearGradient id="SVGID_3_" gradientUnits="userSpaceOnUse" x1="7.1719" y1="26.7478" x2="595.6563" y2="26.7478">
			<stop  offset="0" style="stop-color:#BE9A4F"/>
			<stop  offset="0.414" style="stop-color:#5D2100"/>
			<stop  offset="0.6899" style="stop-color:#814B14"/>
			<stop  offset="0.9173" style="stop-color:#DCB663"/>
			<stop  offset="1" style="stop-color:#D8AA3C"/>
		</linearGradient>
		<path class="st2" d="M61,32.6c-0.3,2-1.2,3-2.6,3c-0.6,0-1.1-0.2-1.5-0.6c-0.4-0.4-0.5-0.9-0.4-1.5L60,11.8
			c0.1-0.6,0.4-1.1,0.9-1.5c0.5-0.4,1-0.6,1.6-0.6c0.6,0,1.1,0.2,1.4,0.6c0.3,0.4,0.5,0.9,0.4,1.4L61,32.6z"/>
		<linearGradient id="SVGID_4_" gradientUnits="userSpaceOnUse" x1="7.1719" y1="26.7478" x2="595.6563" y2="26.7478">
			<stop  offset="0" style="stop-color:#BE9A4F"/>
			<stop  offset="0.414" style="stop-color:#5D2100"/>
			<stop  offset="0.6899" style="stop-color:#814B14"/>
			<stop  offset="0.9173" style="stop-color:#DCB663"/>
			<stop  offset="1" style="stop-color:#D8AA3C"/>
		</linearGradient>
		<path class="st3" d="M64,29.8c0-2.4,1.1-4.9,3.2-7.5c2.1-2.6,4.3-4,6.6-4c1.2,0,2.4,0.3,3.8,0.9c1.4,0.6,2.1,1.4,2.1,2.2
			c0,0.6-0.2,1.1-0.7,1.5c-0.5,0.5-1,0.7-1.6,0.7c-0.5,0-1-0.2-1.5-0.7c-0.6-0.5-1.5-0.7-2.7-0.7c-0.8,0-1.9,0.9-3.1,2.6
			c-1.2,1.7-1.9,3.2-1.9,4.3c0,0.9,0.3,1.5,1,2.1c0.6,0.5,1.5,0.8,2.7,0.8c0.7,0,1.6-0.3,2.7-0.8c1.1-0.5,1.8-0.8,2.1-0.8
			c0.5,0,0.9,0.2,1.3,0.5c0.3,0.3,0.5,0.8,0.5,1.2c0,0.9-0.9,1.8-2.8,2.6c-1.8,0.8-3.3,1.2-4.4,1.2c-2.2,0-3.9-0.6-5.2-1.7
			C64.6,33.1,64,31.6,64,29.8z"/>
		<linearGradient id="SVGID_5_" gradientUnits="userSpaceOnUse" x1="7.1719" y1="26.7478" x2="595.6563" y2="26.7478">
			<stop  offset="0" style="stop-color:#BE9A4F"/>
			<stop  offset="0.414" style="stop-color:#5D2100"/>
			<stop  offset="0.6899" style="stop-color:#814B14"/>
			<stop  offset="0.9173" style="stop-color:#DCB663"/>
			<stop  offset="1" style="stop-color:#D8AA3C"/>
		</linearGradient>
		<path class="st4" d="M80.8,29.4c0-2.6,0.9-5,2.8-7.3c1.9-2.3,4.3-3.4,7.3-3.4c1.7,0,3,0.6,4,1.7c1,1.2,1.5,2.7,1.5,4.6
			c0,2.7-0.9,5.2-2.7,7.4c-1.8,2.2-4,3.3-6.7,3.3c-1.9,0-3.4-0.6-4.5-1.8C81.4,32.8,80.8,31.3,80.8,29.4z M85.2,28.8
			c0,0.9,0.2,1.6,0.6,2.1c0.4,0.5,1.1,0.8,1.9,0.8c1.4,0,2.4-0.6,3.2-1.7c0.8-1.1,1.2-2.6,1.2-4.4c0-1.8-0.7-2.8-2.1-2.8
			c-1.4,0-2.5,0.7-3.5,2C85.7,26.2,85.2,27.5,85.2,28.8z"/>
		<linearGradient id="SVGID_6_" gradientUnits="userSpaceOnUse" x1="7.1719" y1="26.7478" x2="595.6563" y2="26.7478">
			<stop  offset="0" style="stop-color:#BE9A4F"/>
			<stop  offset="0.414" style="stop-color:#5D2100"/>
			<stop  offset="0.6899" style="stop-color:#814B14"/>
			<stop  offset="0.9173" style="stop-color:#DCB663"/>
			<stop  offset="1" style="stop-color:#D8AA3C"/>
		</linearGradient>
		<path class="st5" d="M103.9,21.1c1.9-1.8,3.5-2.8,4.9-2.8c1.6,0,2.7,0.6,3.2,1.9c1.4-1.1,3.1-1.7,4.9-1.7c2.5,0,3.8,1.5,3.8,4.6
			c0,0.7,0,1.6-0.1,2.7c0,0.2,0,1.8-0.1,4.7c0,1.6-0.1,2.8-0.1,3.5c-0.1,0.8-0.3,1.3-0.9,1.7c-0.5,0.4-1.1,0.6-1.6,0.6
			c-0.7,0-1.1-0.2-1.4-0.5c-0.3-0.4-0.4-1-0.4-2l0.4-8.3c0-1.9-0.2-2.8-0.6-2.8c-0.2,0-0.8,0.3-1.8,0.8c-1,0.5-1.7,0.9-2,1.2
			c-0.2,0.9-0.3,2.6-0.4,5.1c-0.1,3.2-0.3,5-0.5,5.5c-0.2,0.5-0.5,0.9-0.9,1.2c-0.4,0.3-0.9,0.5-1.4,0.5c-0.6,0-1-0.2-1.4-0.5
			c-0.3-0.3-0.5-0.7-0.5-1.2l0.2-1.8c0.1-0.8,0.2-2.1,0.3-3.9c0.1-2.5,0.3-4.3,0.4-5.3c0.1-0.6,0.1-1.2,0.1-1.6
			c-1.4,0.7-2.9,2-4.5,3.8l-1.3,7.2c-0.1,0.5-0.3,1-0.8,1.3c-0.5,0.3-1.1,0.5-1.7,0.5c-1.1,0-1.7-0.7-1.7-2c0-0.5,0.1-1,0.2-1.7
			l0.9-5.8c0.2-1.5,0.4-2.7,0.5-3.6c0.1-1.5,0.5-2.7,1.1-3.6c0.6-0.9,1.2-1.3,1.9-1.3c0.6,0,1,0.2,1.4,0.6c0.4,0.4,0.6,0.8,0.6,1.3
			C104.3,19.6,104.2,20.1,103.9,21.1z"/>
		<linearGradient id="SVGID_7_" gradientUnits="userSpaceOnUse" x1="7.1719" y1="26.7478" x2="595.6563" y2="26.7478">
			<stop  offset="0" style="stop-color:#BE9A4F"/>
			<stop  offset="0.414" style="stop-color:#5D2100"/>
			<stop  offset="0.6899" style="stop-color:#814B14"/>
			<stop  offset="0.9173" style="stop-color:#DCB663"/>
			<stop  offset="1" style="stop-color:#D8AA3C"/>
		</linearGradient>
		<path class="st6" d="M126.5,30.2c0.9,1.1,2.2,1.6,4,1.6c1.4,0,2.6-0.3,3.7-0.9c1-0.5,1.7-0.8,2.2-0.8c0.9,0,1.4,0.4,1.4,1.2
			c0,1.2-0.8,2.2-2.5,3c-1.6,0.8-3.4,1.2-5.4,1.2c-2.4,0-4.3-0.5-5.6-1.6s-2-2.5-2-4.4c0-2.6,0.9-5,2.7-7.4c1.8-2.4,4.2-3.6,7.2-3.6
			c2,0,3.5,0.3,4.6,1c1.1,0.7,1.6,1.6,1.6,2.8c0,1.1-0.4,2.1-1.3,2.9c-0.9,0.8-2.5,1.7-5,2.6L126.5,30.2z M126.8,26.2l3.8-1.5
			c1.4-0.6,2.6-1.2,3.6-1.8c-0.6-0.4-1.5-0.6-2.6-0.6C129.7,22.3,128.1,23.6,126.8,26.2z"/>
		<linearGradient id="SVGID_8_" gradientUnits="userSpaceOnUse" x1="7.1719" y1="26.7478" x2="595.6563" y2="26.7478">
			<stop  offset="0" style="stop-color:#BE9A4F"/>
			<stop  offset="0.414" style="stop-color:#5D2100"/>
			<stop  offset="0.6899" style="stop-color:#814B14"/>
			<stop  offset="0.9173" style="stop-color:#DCB663"/>
			<stop  offset="1" style="stop-color:#D8AA3C"/>
		</linearGradient>
		<path class="st7" d="M168.5,15.8l-0.7,7.3c-0.3,2.5-0.5,4.4-0.6,5.5c-0.1,0.2-0.1,0.8-0.2,1.6c-0.1,2-0.5,3.3-1.1,3.9
			s-1.3,1-1.8,1c-0.6,0-1-0.2-1.4-0.5c-0.4-0.4-0.5-0.8-0.5-1.3c0-0.2,0.1-0.5,0.2-1c0.2-0.5,0.3-1.1,0.3-1.7c0-0.6,0.2-2.5,0.5-5.6
			l0.9-9l-1.7,0.1c-1.9,0.1-3.4,0-4.5-0.3c-1.1-0.2-1.7-0.8-1.7-1.6c0-0.7,0.2-1.3,0.7-1.8c0.5-0.5,1.1-0.8,1.9-0.8l4.4,0.3
			c0.8,0,2.1-0.1,4-0.2c1.8-0.1,3.1-0.2,3.8-0.2l4.9,0.1c0.8,0,1.4,0,1.6,0.1c0.2,0,0.5,0.2,0.8,0.5c0.3,0.3,0.4,0.7,0.4,1.1
			c0,0.7-0.3,1.2-0.8,1.8c-0.5,0.5-1.1,0.8-1.7,0.8l-6.7-0.1H168.5z"/>
		<linearGradient id="SVGID_9_" gradientUnits="userSpaceOnUse" x1="7.1719" y1="26.7478" x2="595.6563" y2="26.7478">
			<stop  offset="0" style="stop-color:#BE9A4F"/>
			<stop  offset="0.414" style="stop-color:#5D2100"/>
			<stop  offset="0.6899" style="stop-color:#814B14"/>
			<stop  offset="0.9173" style="stop-color:#DCB663"/>
			<stop  offset="1" style="stop-color:#D8AA3C"/>
		</linearGradient>
		<path class="st8" d="M176.6,29.4c0-2.6,0.9-5,2.8-7.3c1.9-2.3,4.3-3.4,7.3-3.4c1.7,0,3,0.6,4,1.7c1,1.2,1.5,2.7,1.5,4.6
			c0,2.7-0.9,5.2-2.7,7.4c-1.8,2.2-4,3.3-6.7,3.3c-1.9,0-3.4-0.6-4.5-1.8C177.1,32.8,176.6,31.3,176.6,29.4z M180.9,28.8
			c0,0.9,0.2,1.6,0.6,2.1c0.4,0.5,1.1,0.8,1.9,0.8c1.4,0,2.4-0.6,3.2-1.7c0.8-1.1,1.2-2.6,1.2-4.4c0-1.8-0.7-2.8-2.1-2.8
			c-1.4,0-2.5,0.7-3.5,2C181.4,26.2,180.9,27.5,180.9,28.8z"/>
		<linearGradient id="SVGID_10_" gradientUnits="userSpaceOnUse" x1="7.1719" y1="26.7478" x2="595.6563" y2="26.7478">
			<stop  offset="0" style="stop-color:#BE9A4F"/>
			<stop  offset="0.414" style="stop-color:#5D2100"/>
			<stop  offset="0.6899" style="stop-color:#814B14"/>
			<stop  offset="0.9173" style="stop-color:#DCB663"/>
			<stop  offset="1" style="stop-color:#D8AA3C"/>
		</linearGradient>
		<path class="st9" d="M219.2,16c-0.5,2-0.9,4.6-1.4,7.6l-1.1,7l2.1,0c0.9,0,1.6,0,2.2,0s1,0.2,1.3,0.5c0.3,0.3,0.5,0.7,0.5,1.2
			c0,0.7-0.3,1.2-0.8,1.7c-0.5,0.5-1.1,0.7-1.8,0.7h-1.1c-0.4,0-0.9,0-1.5,0l-1.5,0c-1.7,0-3.1,0.1-4.3,0.3
			c-1.3,0.2-2.4,0.3-3.1,0.3c-0.6,0-1-0.2-1.4-0.5c-0.3-0.3-0.5-0.8-0.5-1.2c0-0.7,0.3-1.3,0.8-1.8c0.5-0.5,1.1-0.8,1.8-0.8
			c0.9,0,1.8-0.1,2.8-0.2c1.1-7.4,2-12.4,2.7-15.2l-3.4,0.1c-0.5,0-1-0.1-1.3-0.5c-0.4-0.3-0.6-0.8-0.6-1.3c0-0.6,0.2-1.2,0.7-1.7
			c0.5-0.5,1.1-0.8,1.9-0.8c0.8-0.1,2.3-0.1,4.6-0.1c1.4,0,2.9,0.1,4.8,0.3s2.9,0.3,3.3,0.4c0.4,0.1,0.7,0.3,1,0.5
			c0.2,0.3,0.3,0.6,0.3,1.1c0,0.8-0.3,1.4-0.8,1.8s-1.1,0.7-1.8,0.7C223.1,16.4,221.6,16.3,219.2,16z"/>
		<linearGradient id="SVGID_11_" gradientUnits="userSpaceOnUse" x1="7.1719" y1="26.7478" x2="595.6563" y2="26.7478">
			<stop  offset="0" style="stop-color:#BE9A4F"/>
			<stop  offset="0.414" style="stop-color:#5D2100"/>
			<stop  offset="0.6899" style="stop-color:#814B14"/>
			<stop  offset="0.9173" style="stop-color:#DCB663"/>
			<stop  offset="1" style="stop-color:#D8AA3C"/>
		</linearGradient>
		<path class="st10" d="M231.3,20.5c1.8-1.5,3.5-2.3,5.2-2.3c2.6,0,3.9,1.5,3.9,4.5c0,0.8-0.1,1.8-0.3,2.9l-0.2,1.1
			c-0.3,1.6-0.4,2.9-0.4,4.2c0,1.4,0,2.4-0.1,3c-0.1,0.6-0.3,1.1-0.8,1.5c-0.5,0.4-1,0.6-1.7,0.6c-1.2,0-1.9-0.6-1.9-1.8
			c0-2.6,0.1-4.6,0.2-5.8s0.4-2.6,0.8-4.1c0.1-0.6,0.2-1,0.2-1.2c0-0.5-0.2-0.8-0.5-0.8c-1,0-2,0.6-3.2,1.8c-1.1,1.2-2,2.4-2.5,3.6
			c-0.6,1.2-0.9,2.8-1,4.7c0,0.9-0.1,1.5-0.3,1.9c-0.1,0.3-0.4,0.7-0.8,1c-0.4,0.3-0.9,0.5-1.5,0.5c-0.5,0-1-0.2-1.3-0.5
			c-0.3-0.3-0.5-0.7-0.5-1.2l0.1-1.7c0.1-1.1,0.4-3,1-5.5c0.6-2.3,0.9-3.9,1-4.8c0.1-1,0.2-1.7,0.3-2.3c0.1-0.5,0.4-1,0.8-1.4
			c0.5-0.4,1-0.6,1.7-0.6c1.4,0,2,0.8,1.8,2.4V20.5z"/>
		<linearGradient id="SVGID_12_" gradientUnits="userSpaceOnUse" x1="7.1719" y1="26.7478" x2="595.6563" y2="26.7478">
			<stop  offset="0" style="stop-color:#BE9A4F"/>
			<stop  offset="0.414" style="stop-color:#5D2100"/>
			<stop  offset="0.6899" style="stop-color:#814B14"/>
			<stop  offset="0.9173" style="stop-color:#DCB663"/>
			<stop  offset="1" style="stop-color:#D8AA3C"/>
		</linearGradient>
		<path class="st11" d="M255.3,19.2c0.8-3.8,1.4-6.3,1.7-7.5c0.3-1.1,1.1-1.7,2.3-1.7c1.2,0,1.8,0.6,1.8,1.7c0,0.6-0.5,2.9-1.5,7.1
			c-0.8,3.5-1.4,6.4-1.7,8.9c-0.3,2.5-0.5,4.1-0.5,5c0,0.5,0,0.9-0.1,1.2c-0.1,0.3-0.3,0.6-0.8,1c-0.4,0.4-0.9,0.5-1.5,0.5
			c-0.8,0-1.3-0.4-1.6-1.1c-1.5,0.9-3.1,1.3-4.8,1.3c-2.2,0-3.9-0.6-5.1-1.9c-1.2-1.3-1.9-2.8-1.9-4.6c0-2.7,0.9-5.2,2.8-7.5
			c1.9-2.3,4.3-3.4,7.4-3.4C253.4,18.2,254.5,18.5,255.3,19.2z M254.3,24.1c-0.5-1.3-1.5-2-3-2c-1.9,0-3.3,0.7-4.2,2
			c-0.9,1.3-1.3,2.7-1.3,4c0,1,0.3,1.8,1,2.5c0.7,0.7,1.5,1,2.5,1c1.4,0,2.7-0.6,4.1-1.8C253.3,29.5,253.6,27.6,254.3,24.1z"/>
		<linearGradient id="SVGID_13_" gradientUnits="userSpaceOnUse" x1="7.1719" y1="26.7478" x2="595.6563" y2="26.7478">
			<stop  offset="0" style="stop-color:#BE9A4F"/>
			<stop  offset="0.414" style="stop-color:#5D2100"/>
			<stop  offset="0.6899" style="stop-color:#814B14"/>
			<stop  offset="0.9173" style="stop-color:#DCB663"/>
			<stop  offset="1" style="stop-color:#D8AA3C"/>
		</linearGradient>
		<path class="st12" d="M263.1,35.4c-0.6,0-1-0.2-1.4-0.5s-0.5-0.7-0.5-1.3l0.4-3.2c0.3-2.1,0.7-4.3,1.1-6.3
			c0.4-1.5,0.6-2.7,0.7-3.5c0.1-0.6,0.4-1.1,0.9-1.5c0.5-0.4,1-0.6,1.6-0.6c0.5,0,1,0.2,1.3,0.5c0.3,0.3,0.5,0.7,0.5,1.3
			c0,0.4-0.2,1.6-0.7,3.6c-0.5,2-0.8,3.9-1,5.8c-0.2,1.9-0.4,3.1-0.5,3.7c-0.1,0.6-0.4,1.1-0.9,1.5
			C264.2,35.2,263.7,35.4,263.1,35.4z M264.8,14.1c0-0.7,0.3-1.3,0.9-1.9c0.6-0.5,1.2-0.8,2-0.8c0.6,0,1.1,0.2,1.5,0.6
			c0.4,0.4,0.6,0.8,0.6,1.4c0,0.7-0.3,1.3-0.9,1.9c-0.6,0.5-1.3,0.8-2,0.8c-0.6,0-1.1-0.2-1.5-0.6C265,15.2,264.8,14.7,264.8,14.1z"
			/>
		<linearGradient id="SVGID_14_" gradientUnits="userSpaceOnUse" x1="7.1719" y1="26.7478" x2="595.6563" y2="26.7478">
			<stop  offset="0" style="stop-color:#BE9A4F"/>
			<stop  offset="0.414" style="stop-color:#5D2100"/>
			<stop  offset="0.6899" style="stop-color:#814B14"/>
			<stop  offset="0.9173" style="stop-color:#DCB663"/>
			<stop  offset="1" style="stop-color:#D8AA3C"/>
		</linearGradient>
		<path class="st13" d="M279.6,34.3c-2.1,0.9-3.6,1.4-4.6,1.4c-4.3,0-6.4-2-6.4-5.9c0-3.3,1.1-6,3.4-8.1c2.3-2.1,4.8-3.2,7.6-3.2
			c1,0,2.2,0.3,3.4,0.9c1.3,0.6,1.9,1.3,1.9,2c0,0.5-0.2,0.9-0.5,1.3c-0.4,0.8-0.7,2-0.9,3.6c-0.2,1.6-0.4,2.8-0.4,3.6
			c0,0.5,0,0.8,0.1,1l0.5,1.5c0.2,0.8,0.4,1.3,0.4,1.5c0,0.4-0.2,0.8-0.7,1.3c-0.5,0.5-1,0.7-1.7,0.7
			C281.1,35.9,280.5,35.4,279.6,34.3z M280.1,22.6c-0.3-0.2-0.6-0.3-0.9-0.3c-1.6,0-3,0.7-4.3,2c-1.3,1.3-2,3-2,5
			c0,1.8,0.8,2.8,2.4,2.8c1.3,0,2.5-0.4,3.7-1.3C279.1,26.8,279.5,24.1,280.1,22.6z"/>
		<linearGradient id="SVGID_15_" gradientUnits="userSpaceOnUse" x1="7.1719" y1="26.7478" x2="595.6563" y2="26.7478">
			<stop  offset="0" style="stop-color:#BE9A4F"/>
			<stop  offset="0.414" style="stop-color:#5D2100"/>
			<stop  offset="0.6899" style="stop-color:#814B14"/>
			<stop  offset="0.9173" style="stop-color:#DCB663"/>
			<stop  offset="1" style="stop-color:#D8AA3C"/>
		</linearGradient>
		<path class="st14" d="M296.8,18.6c-0.1,0.5-0.4,1-0.8,1.3c-0.4,0.3-0.9,0.5-1.5,0.5c-0.5,0-0.9-0.2-1.3-0.5
			c-0.3-0.3-0.5-0.7-0.5-1.1c0-0.3,0.2-1.5,0.6-3.5s0.7-3.3,0.8-3.7c0.1-0.4,0.4-0.7,0.8-1c0.4-0.3,0.8-0.4,1.4-0.4
			c0.5,0,1,0.1,1.3,0.4c0.3,0.3,0.5,0.6,0.5,1.1c0,0.3-0.1,0.7-0.3,1.2c0,0.1-0.1,0.2-0.1,0.3L296.8,18.6z"/>
		<linearGradient id="SVGID_16_" gradientUnits="userSpaceOnUse" x1="7.1719" y1="26.7478" x2="595.6563" y2="26.7478">
			<stop  offset="0" style="stop-color:#BE9A4F"/>
			<stop  offset="0.414" style="stop-color:#5D2100"/>
			<stop  offset="0.6899" style="stop-color:#814B14"/>
			<stop  offset="0.9173" style="stop-color:#DCB663"/>
			<stop  offset="1" style="stop-color:#D8AA3C"/>
		</linearGradient>
		<path class="st15" d="M311.9,22.2c-0.4-0.1-0.9-0.1-1.3-0.1c-2.6,0-3.9,0.4-3.9,1.1c0,0.4,0.7,0.9,2,1.6c2.2,1.1,3.7,2.1,4.4,2.8
			c0.7,0.7,1.1,1.6,1.1,2.6c0,1.5-0.7,2.9-2.2,4c-1.5,1.1-3.5,1.7-6.1,1.7c-1.5,0-2.8-0.3-3.9-0.8c-1.1-0.5-1.7-1.2-1.7-2
			c0-1.3,0.7-2,2.1-2c0.5,0,1.1,0.2,2,0.5c0.9,0.3,1.6,0.5,2,0.5c2.3,0,3.4-0.5,3.4-1.4c0-0.5-0.6-1.1-1.9-1.7
			c-2.2-1-3.6-1.9-4.4-2.5c-0.7-0.7-1.1-1.5-1.1-2.6c0-1.5,0.7-2.9,2-3.9c1.3-1.1,4-1.6,8.1-1.6c2,0,3,0.6,3,1.9
			c0,0.7-0.2,1.4-0.5,2.2c-0.3,0.8-0.8,1.2-1.5,1.2C312.5,23.5,312,23,311.9,22.2z"/>
		<linearGradient id="SVGID_17_" gradientUnits="userSpaceOnUse" x1="7.1719" y1="26.7478" x2="595.6563" y2="26.7478">
			<stop  offset="0" style="stop-color:#BE9A4F"/>
			<stop  offset="0.414" style="stop-color:#5D2100"/>
			<stop  offset="0.6899" style="stop-color:#814B14"/>
			<stop  offset="0.9173" style="stop-color:#DCB663"/>
			<stop  offset="1" style="stop-color:#D8AA3C"/>
		</linearGradient>
		<path class="st16" d="M347.6,11.8c0.6-0.4,1.1-0.7,1.8-0.7c1.1,0,1.7,0.8,1.7,2.3c0,1.9-0.3,3.1-0.8,3.8c-0.5,0.7-1.2,1-2,1
			c-1,0-1.6-0.5-1.9-1.5c-0.1-0.5-0.3-0.7-0.4-0.8c-0.2-0.1-0.6-0.1-1.3-0.1c-1.6,0-3.6,1.4-6.2,4.3c-2.5,2.9-3.8,5.4-3.8,7.5
			c0,0.9,0.3,1.7,0.9,2.4s1.4,1,2.4,1c0.9,0,1.7-0.1,2.4-0.4c0.7-0.3,1.9-0.9,3.5-1.9c0.9-0.5,1.5-0.8,2-0.8c0.6,0,1,0.2,1.4,0.5
			c0.4,0.4,0.5,0.8,0.5,1.3c0,0.5-0.2,1-0.6,1.4c-0.4,0.4-1.2,1-2.4,1.8s-2.5,1.3-3.7,1.8c-1.2,0.4-2.5,0.6-3.7,0.6
			c-2.1,0-3.8-0.7-5.1-2.1c-1.3-1.4-1.9-3-1.9-4.9c0-3.4,1.7-7,5.2-10.9c3.5-3.9,6.8-5.8,9.8-5.8C346.4,11.6,347.1,11.6,347.6,11.8z
			"/>
		<linearGradient id="SVGID_18_" gradientUnits="userSpaceOnUse" x1="7.1719" y1="26.7478" x2="595.6563" y2="26.7478">
			<stop  offset="0" style="stop-color:#BE9A4F"/>
			<stop  offset="0.414" style="stop-color:#5D2100"/>
			<stop  offset="0.6899" style="stop-color:#814B14"/>
			<stop  offset="0.9173" style="stop-color:#DCB663"/>
			<stop  offset="1" style="stop-color:#D8AA3C"/>
		</linearGradient>
		<path class="st17" d="M365.4,25.9l-1.1,7.3c-0.1,0.4-0.1,0.7-0.1,1c-0.1,0.6-0.4,1.1-0.9,1.4c-0.5,0.4-1,0.6-1.6,0.6
			c-0.9,0-1.5-0.4-1.7-1.2c-1.4,0.5-2.8,0.7-4.2,0.7c-1.3,0-2.4-0.2-3.2-0.7c-0.8-0.5-1.3-1-1.6-1.6c-0.2-0.6-0.4-1.4-0.4-2.5
			c0-2.9,0.3-5.5,0.8-7.8c0.5-2.3,1-3.7,1.5-4.2c0.4-0.5,1-0.7,1.8-0.7c0.6,0,1,0.2,1.4,0.5c0.4,0.3,0.5,0.7,0.5,1.2
			c0,0.4-0.2,1.2-0.6,2.5c-0.7,2.3-1.1,4.8-1.1,7.5c0,0.5,0,0.9,0.1,1.3c0.4,0.2,0.9,0.4,1.4,0.4c1.2,0,2.5-0.2,3.9-0.5l1.2-7.1
			c0.3-1.7,0.5-2.9,0.8-3.6c0.2-0.7,0.6-1.3,1-1.6c0.4-0.3,0.9-0.4,1.5-0.4c0.6,0,1,0.2,1.4,0.5c0.3,0.3,0.5,0.7,0.5,1.2
			c0,0.2-0.2,1.2-0.6,3.2L365.4,25.9L365.4,25.9z"/>
		<linearGradient id="SVGID_19_" gradientUnits="userSpaceOnUse" x1="7.1719" y1="26.7478" x2="595.6563" y2="26.7478">
			<stop  offset="0" style="stop-color:#BE9A4F"/>
			<stop  offset="0.414" style="stop-color:#5D2100"/>
			<stop  offset="0.6899" style="stop-color:#814B14"/>
			<stop  offset="0.9173" style="stop-color:#DCB663"/>
			<stop  offset="1" style="stop-color:#D8AA3C"/>
		</linearGradient>
		<path class="st18" d="M372.2,32.6c-0.3,2-1.2,3-2.6,3c-0.6,0-1.1-0.2-1.5-0.6c-0.4-0.4-0.5-0.9-0.4-1.5l3.4-21.6
			c0.1-0.6,0.4-1.1,0.9-1.5c0.5-0.4,1-0.6,1.6-0.6c0.6,0,1.1,0.2,1.4,0.6c0.3,0.4,0.5,0.9,0.4,1.4L372.2,32.6z"/>
		<linearGradient id="SVGID_20_" gradientUnits="userSpaceOnUse" x1="7.1719" y1="26.7478" x2="595.6563" y2="26.7478">
			<stop  offset="0" style="stop-color:#BE9A4F"/>
			<stop  offset="0.414" style="stop-color:#5D2100"/>
			<stop  offset="0.6899" style="stop-color:#814B14"/>
			<stop  offset="0.9173" style="stop-color:#DCB663"/>
			<stop  offset="1" style="stop-color:#D8AA3C"/>
		</linearGradient>
		<path class="st19" d="M387.8,22.6h-1.3c-0.7,0-1.4,0-1.8,0c-0.1,0.2-0.1,0.3-0.2,0.5c0,0.2-0.1,0.3-0.1,0.5
			c-0.8,2.7-1.2,4.8-1.2,6.1c0,1.2,0.2,1.8,0.7,1.8c0.5,0,1-0.3,1.5-0.8c0.5-0.6,1-0.8,1.5-0.8c0.4,0,0.8,0.2,1.2,0.5
			c0.4,0.4,0.6,0.8,0.6,1.4c0,1-0.6,1.9-1.8,2.6c-1.2,0.7-2.4,1.1-3.6,1.1c-2.9,0-4.4-1.8-4.4-5.3c0-1.9,0.5-4.4,1.5-7.5
			c-1.8-0.1-2.9-0.3-3.3-0.6s-0.6-0.9-0.6-1.6c0-0.6,0.2-1.2,0.6-1.5c0.4-0.4,1-0.6,1.6-0.6l2.4,0.2l0.4-3.1c0.1-0.5,0.3-1,0.7-1.4
			c0.4-0.4,0.9-0.6,1.5-0.6c1.2,0,1.9,0.9,1.9,2.6c0,0.3-0.1,1.1-0.3,2.4c0.3,0,0.5-0.1,0.7-0.1c0.6-0.1,1.4,0,2.3,0.1
			c1,0.2,1.5,0.8,1.5,1.9c0,0.7-0.2,1.2-0.7,1.6C389,22.4,388.4,22.6,387.8,22.6z"/>
		<linearGradient id="SVGID_21_" gradientUnits="userSpaceOnUse" x1="7.1719" y1="26.7478" x2="595.6563" y2="26.7478">
			<stop  offset="0" style="stop-color:#BE9A4F"/>
			<stop  offset="0.414" style="stop-color:#5D2100"/>
			<stop  offset="0.6899" style="stop-color:#814B14"/>
			<stop  offset="0.9173" style="stop-color:#DCB663"/>
			<stop  offset="1" style="stop-color:#D8AA3C"/>
		</linearGradient>
		<path class="st20" d="M405.8,25.9l-1.1,7.3c-0.1,0.4-0.1,0.7-0.1,1c-0.1,0.6-0.4,1.1-0.9,1.4c-0.5,0.4-1,0.6-1.6,0.6
			c-0.9,0-1.5-0.4-1.7-1.2c-1.4,0.5-2.8,0.7-4.2,0.7c-1.3,0-2.4-0.2-3.2-0.7c-0.8-0.5-1.3-1-1.6-1.6c-0.2-0.6-0.4-1.4-0.4-2.5
			c0-2.9,0.3-5.5,0.8-7.8c0.5-2.3,1-3.7,1.5-4.2c0.4-0.5,1-0.7,1.8-0.7c0.6,0,1,0.2,1.4,0.5c0.4,0.3,0.5,0.7,0.5,1.2
			c0,0.4-0.2,1.2-0.6,2.5c-0.7,2.3-1.1,4.8-1.1,7.5c0,0.5,0,0.9,0.1,1.3c0.4,0.2,0.9,0.4,1.4,0.4c1.2,0,2.5-0.2,3.9-0.5l1.2-7.1
			c0.3-1.7,0.5-2.9,0.8-3.6c0.2-0.7,0.6-1.3,1-1.6c0.4-0.3,0.9-0.4,1.5-0.4c0.6,0,1,0.2,1.4,0.5c0.3,0.3,0.5,0.7,0.5,1.2
			c0,0.2-0.2,1.2-0.6,3.2L405.8,25.9L405.8,25.9z"/>
		<linearGradient id="SVGID_22_" gradientUnits="userSpaceOnUse" x1="7.1719" y1="26.7478" x2="595.6563" y2="26.7478">
			<stop  offset="0" style="stop-color:#BE9A4F"/>
			<stop  offset="0.414" style="stop-color:#5D2100"/>
			<stop  offset="0.6899" style="stop-color:#814B14"/>
			<stop  offset="0.9173" style="stop-color:#DCB663"/>
			<stop  offset="1" style="stop-color:#D8AA3C"/>
		</linearGradient>
		<path class="st21" d="M422.3,23.6c-0.1,0.6-0.3,1.1-0.8,1.6c-0.4,0.5-1,0.8-1.8,0.8c-1.1,0-1.7-0.5-1.7-1.5c0-0.2,0-0.3,0-0.5
			l0.1-1.6c-2.4,0.4-4.3,1.6-5.6,3.6l-1.2,7.8c-0.1,0.6-0.4,1.1-0.8,1.5c-0.5,0.4-1,0.6-1.7,0.6c-0.6,0-1-0.2-1.3-0.6
			c-0.3-0.4-0.4-0.9-0.3-1.5l1.6-10.2l0.4-2.2c0.1-0.7,0.3-1.3,0.4-1.6c0.2-0.3,0.4-0.6,0.8-0.8s0.8-0.3,1.3-0.3
			c1.2,0,1.8,0.6,1.8,1.8c2.1-1.4,4.2-2.1,6.5-2.1c1.7,0,2.6,0.9,2.6,2.8c0,0.4,0,0.9-0.1,1.3L422.3,23.6z"/>
		<linearGradient id="SVGID_23_" gradientUnits="userSpaceOnUse" x1="7.1719" y1="26.7478" x2="595.6563" y2="26.7478">
			<stop  offset="0" style="stop-color:#BE9A4F"/>
			<stop  offset="0.414" style="stop-color:#5D2100"/>
			<stop  offset="0.6899" style="stop-color:#814B14"/>
			<stop  offset="0.9173" style="stop-color:#DCB663"/>
			<stop  offset="1" style="stop-color:#D8AA3C"/>
		</linearGradient>
		<path class="st22" d="M433,34.3c-2.1,0.9-3.6,1.4-4.6,1.4c-4.3,0-6.4-2-6.4-5.9c0-3.3,1.1-6,3.4-8.1c2.3-2.1,4.8-3.2,7.6-3.2
			c1,0,2.2,0.3,3.4,0.9c1.3,0.6,1.9,1.3,1.9,2c0,0.5-0.2,0.9-0.5,1.3c-0.4,0.8-0.7,2-0.9,3.6c-0.2,1.6-0.4,2.8-0.4,3.6
			c0,0.5,0,0.8,0.1,1l0.5,1.5c0.2,0.8,0.4,1.3,0.4,1.5c0,0.4-0.2,0.8-0.7,1.3c-0.5,0.5-1,0.7-1.7,0.7
			C434.5,35.9,433.9,35.4,433,34.3z M433.5,22.6c-0.3-0.2-0.6-0.3-0.9-0.3c-1.6,0-3,0.7-4.3,2c-1.3,1.3-2,3-2,5
			c0,1.8,0.8,2.8,2.4,2.8c1.3,0,2.5-0.4,3.7-1.3C432.5,26.8,432.9,24.1,433.5,22.6z"/>
		<linearGradient id="SVGID_24_" gradientUnits="userSpaceOnUse" x1="7.1719" y1="26.7478" x2="595.6563" y2="26.7478">
			<stop  offset="0" style="stop-color:#BE9A4F"/>
			<stop  offset="0.414" style="stop-color:#5D2100"/>
			<stop  offset="0.6899" style="stop-color:#814B14"/>
			<stop  offset="0.9173" style="stop-color:#DCB663"/>
			<stop  offset="1" style="stop-color:#D8AA3C"/>
		</linearGradient>
		<path class="st23" d="M445.8,32.6c-0.3,2-1.2,3-2.6,3c-0.6,0-1.1-0.2-1.5-0.6c-0.4-0.4-0.5-0.9-0.4-1.5l3.4-21.6
			c0.1-0.6,0.4-1.1,0.9-1.5c0.5-0.4,1-0.6,1.6-0.6c0.6,0,1.1,0.2,1.4,0.6c0.3,0.4,0.5,0.9,0.4,1.4L445.8,32.6z"/>
		<linearGradient id="SVGID_25_" gradientUnits="userSpaceOnUse" x1="7.1719" y1="26.7478" x2="595.6563" y2="26.7478">
			<stop  offset="0" style="stop-color:#BE9A4F"/>
			<stop  offset="0.414" style="stop-color:#5D2100"/>
			<stop  offset="0.6899" style="stop-color:#814B14"/>
			<stop  offset="0.9173" style="stop-color:#DCB663"/>
			<stop  offset="1" style="stop-color:#D8AA3C"/>
		</linearGradient>
		<path class="st24" d="M481.5,25.1c-1.9,0.1-6,0.7-12.4,1.9c-0.1,0.8-0.4,2-0.8,3.6c-0.4,1.7-0.6,2.8-0.7,3.6
			c-0.1,0.6-0.4,1.1-0.9,1.5s-1,0.6-1.6,0.6c-0.5,0-1-0.2-1.3-0.5c-0.3-0.3-0.5-0.8-0.5-1.2c0-0.5,0.3-2.1,1-5
			c0.6-2.5,1.7-8.1,3.1-16.8c0.1-0.6,0.4-1.1,0.8-1.5s1-0.6,1.6-0.6c0.5,0,1,0.2,1.3,0.5c0.3,0.3,0.5,0.7,0.5,1.2
			c0,0.4-0.2,1.7-0.7,3.9l-0.4,2.1c-0.2,1.3-0.4,2.3-0.6,3c-0.2,0.6-0.3,1.1-0.4,1.6l6.2-1.2c2.1-0.4,4.2-0.6,6.1-0.7
			c0.2-0.7,0.5-2.6,1.1-5.6c0.1-0.9,0.6-1.9,1.3-3c0.7-1.1,1.4-1.6,2.1-1.6c0.5,0,1,0.2,1.3,0.5c0.4,0.3,0.6,0.7,0.6,1.2
			c0,0.3-0.1,0.5-0.2,0.8c-0.3,0.7-0.6,1.5-0.8,2.5c-0.1,0.2-0.1,0.5-0.2,0.8c-0.2,0.7-0.2,1.2-0.3,1.4c-0.1,0.6-0.4,2.1-0.9,4.4
			c-0.6,2.7-0.9,4.6-1,5.8l-0.5,5c-0.1,0.8-0.3,1.4-0.8,1.8c-0.5,0.4-1.1,0.6-1.7,0.6c-0.6,0-1-0.2-1.4-0.5
			c-0.4-0.3-0.6-0.7-0.6-1.2l0.7-5.7c0.1-0.6,0.1-1,0.2-1.4l0.1-0.9C481.4,25.6,481.5,25.4,481.5,25.1z"/>
		<linearGradient id="SVGID_26_" gradientUnits="userSpaceOnUse" x1="7.1719" y1="26.7478" x2="595.6563" y2="26.7478">
			<stop  offset="0" style="stop-color:#BE9A4F"/>
			<stop  offset="0.414" style="stop-color:#5D2100"/>
			<stop  offset="0.6899" style="stop-color:#814B14"/>
			<stop  offset="0.9173" style="stop-color:#DCB663"/>
			<stop  offset="1" style="stop-color:#D8AA3C"/>
		</linearGradient>
		<path class="st25" d="M491.7,30.2c0.9,1.1,2.2,1.6,4,1.6c1.4,0,2.6-0.3,3.7-0.9c1-0.5,1.7-0.8,2.2-0.8c0.9,0,1.4,0.4,1.4,1.2
			c0,1.2-0.8,2.2-2.5,3c-1.6,0.8-3.4,1.2-5.4,1.2c-2.4,0-4.3-0.5-5.6-1.6s-2-2.5-2-4.4c0-2.6,0.9-5,2.7-7.4c1.8-2.4,4.2-3.6,7.2-3.6
			c2,0,3.5,0.3,4.6,1c1.1,0.7,1.6,1.6,1.6,2.8c0,1.1-0.4,2.1-1.3,2.9c-0.9,0.8-2.5,1.7-5,2.6L491.7,30.2z M492,26.2l3.8-1.5
			c1.4-0.6,2.6-1.2,3.6-1.8c-0.6-0.4-1.5-0.6-2.6-0.6C494.8,22.3,493.2,23.6,492,26.2z"/>
		<linearGradient id="SVGID_27_" gradientUnits="userSpaceOnUse" x1="7.1719" y1="26.7478" x2="595.6563" y2="26.7478">
			<stop  offset="0" style="stop-color:#BE9A4F"/>
			<stop  offset="0.414" style="stop-color:#5D2100"/>
			<stop  offset="0.6899" style="stop-color:#814B14"/>
			<stop  offset="0.9173" style="stop-color:#DCB663"/>
			<stop  offset="1" style="stop-color:#D8AA3C"/>
		</linearGradient>
		<path class="st26" d="M520.5,23.6c-0.1,0.6-0.3,1.1-0.8,1.6c-0.4,0.5-1,0.8-1.8,0.8c-1.1,0-1.7-0.5-1.7-1.5c0-0.2,0-0.3,0-0.5
			l0.1-1.6c-2.4,0.4-4.3,1.6-5.6,3.6l-1.2,7.8c-0.1,0.6-0.4,1.1-0.8,1.5c-0.5,0.4-1,0.6-1.7,0.6c-0.6,0-1-0.2-1.3-0.6
			c-0.3-0.4-0.4-0.9-0.3-1.5l1.6-10.2l0.4-2.2c0.1-0.7,0.3-1.3,0.4-1.6c0.2-0.3,0.4-0.6,0.8-0.8s0.8-0.3,1.3-0.3
			c1.2,0,1.8,0.6,1.8,1.8c2.1-1.4,4.2-2.1,6.5-2.1c1.7,0,2.6,0.9,2.6,2.8c0,0.4,0,0.9-0.1,1.3L520.5,23.6z"/>
		<linearGradient id="SVGID_28_" gradientUnits="userSpaceOnUse" x1="7.1719" y1="26.7478" x2="595.6563" y2="26.7478">
			<stop  offset="0" style="stop-color:#BE9A4F"/>
			<stop  offset="0.414" style="stop-color:#5D2100"/>
			<stop  offset="0.6899" style="stop-color:#814B14"/>
			<stop  offset="0.9173" style="stop-color:#DCB663"/>
			<stop  offset="1" style="stop-color:#D8AA3C"/>
		</linearGradient>
		<path class="st27" d="M523.8,35.4c-0.6,0-1-0.2-1.4-0.5s-0.5-0.7-0.5-1.3l0.4-3.2c0.3-2.1,0.7-4.3,1.1-6.3
			c0.4-1.5,0.6-2.7,0.7-3.5c0.1-0.6,0.4-1.1,0.9-1.5c0.5-0.4,1-0.6,1.6-0.6c0.5,0,1,0.2,1.3,0.5c0.3,0.3,0.5,0.7,0.5,1.3
			c0,0.4-0.2,1.6-0.7,3.6c-0.5,2-0.8,3.9-1,5.8c-0.2,1.9-0.4,3.1-0.5,3.7c-0.1,0.6-0.4,1.1-0.9,1.5
			C524.9,35.2,524.4,35.4,523.8,35.4z M525.4,14.1c0-0.7,0.3-1.3,0.9-1.9c0.6-0.5,1.2-0.8,2-0.8c0.6,0,1.1,0.2,1.5,0.6
			c0.4,0.4,0.6,0.8,0.6,1.4c0,0.7-0.3,1.3-0.9,1.9c-0.6,0.5-1.3,0.8-2,0.8c-0.6,0-1.1-0.2-1.5-0.6C525.6,15.2,525.4,14.7,525.4,14.1
			z"/>
		<linearGradient id="SVGID_29_" gradientUnits="userSpaceOnUse" x1="7.1719" y1="26.7478" x2="595.6563" y2="26.7478">
			<stop  offset="0" style="stop-color:#BE9A4F"/>
			<stop  offset="0.414" style="stop-color:#5D2100"/>
			<stop  offset="0.6899" style="stop-color:#814B14"/>
			<stop  offset="0.9173" style="stop-color:#DCB663"/>
			<stop  offset="1" style="stop-color:#D8AA3C"/>
		</linearGradient>
		<path class="st28" d="M542.1,22.6h-1.3c-0.7,0-1.4,0-1.8,0c-0.1,0.2-0.1,0.3-0.2,0.5c0,0.2-0.1,0.3-0.1,0.5
			c-0.8,2.7-1.2,4.8-1.2,6.1c0,1.2,0.2,1.8,0.7,1.8c0.5,0,1-0.3,1.5-0.8c0.5-0.6,1-0.8,1.5-0.8c0.4,0,0.8,0.2,1.2,0.5
			c0.4,0.4,0.6,0.8,0.6,1.4c0,1-0.6,1.9-1.8,2.6c-1.2,0.7-2.4,1.1-3.6,1.1c-2.9,0-4.4-1.8-4.4-5.3c0-1.9,0.5-4.4,1.5-7.5
			c-1.8-0.1-2.9-0.3-3.3-0.6s-0.6-0.9-0.6-1.6c0-0.6,0.2-1.2,0.6-1.5c0.4-0.4,1-0.6,1.6-0.6l2.4,0.2l0.4-3.1c0.1-0.5,0.3-1,0.7-1.4
			c0.4-0.4,0.9-0.6,1.5-0.6c1.2,0,1.9,0.9,1.9,2.6c0,0.3-0.1,1.1-0.3,2.4c0.3,0,0.5-0.1,0.7-0.1c0.6-0.1,1.4,0,2.3,0.1
			c1,0.2,1.5,0.8,1.5,1.9c0,0.7-0.2,1.2-0.7,1.6C543.3,22.4,542.8,22.6,542.1,22.6z"/>
		<linearGradient id="SVGID_30_" gradientUnits="userSpaceOnUse" x1="7.1719" y1="26.7478" x2="595.6563" y2="26.7478">
			<stop  offset="0" style="stop-color:#BE9A4F"/>
			<stop  offset="0.414" style="stop-color:#5D2100"/>
			<stop  offset="0.6899" style="stop-color:#814B14"/>
			<stop  offset="0.9173" style="stop-color:#DCB663"/>
			<stop  offset="1" style="stop-color:#D8AA3C"/>
		</linearGradient>
		<path class="st29" d="M555.3,34.3c-2.1,0.9-3.6,1.4-4.6,1.4c-4.3,0-6.4-2-6.4-5.9c0-3.3,1.1-6,3.4-8.1c2.3-2.1,4.8-3.2,7.6-3.2
			c1,0,2.2,0.3,3.4,0.9c1.3,0.6,1.9,1.3,1.9,2c0,0.5-0.2,0.9-0.5,1.3c-0.4,0.8-0.7,2-0.9,3.6c-0.2,1.6-0.4,2.8-0.4,3.6
			c0,0.5,0,0.8,0.1,1l0.5,1.5c0.2,0.8,0.4,1.3,0.4,1.5c0,0.4-0.2,0.8-0.7,1.3c-0.5,0.5-1,0.7-1.7,0.7
			C556.8,35.9,556.2,35.4,555.3,34.3z M555.8,22.6c-0.3-0.2-0.6-0.3-0.9-0.3c-1.6,0-3,0.7-4.3,2c-1.3,1.3-2,3-2,5
			c0,1.8,0.8,2.8,2.4,2.8c1.3,0,2.5-0.4,3.7-1.3C554.8,26.8,555.2,24.1,555.8,22.6z"/>
		<linearGradient id="SVGID_31_" gradientUnits="userSpaceOnUse" x1="7.1719" y1="26.7478" x2="595.6563" y2="26.7478">
			<stop  offset="0" style="stop-color:#BE9A4F"/>
			<stop  offset="0.414" style="stop-color:#5D2100"/>
			<stop  offset="0.6899" style="stop-color:#814B14"/>
			<stop  offset="0.9173" style="stop-color:#DCB663"/>
			<stop  offset="1" style="stop-color:#D8AA3C"/>
		</linearGradient>
		<path class="st30" d="M572.5,34.1c-1.2,1.1-2.6,1.6-4.2,1.6c-1.9,0-3.4-0.5-4.4-1.6c-1.1-1.1-1.6-2.5-1.6-4.1c0-2.8,1-5.3,3.1-7.6
			c2.1-2.3,4.9-3.4,8.4-3.4c2,0,3.3,0.5,4,1.4c1.1,0.1,1.7,0.7,1.7,1.8c0,0.6-0.3,1.7-0.9,3.5c-0.8,2.3-1.5,4.9-2,7.8
			c-0.7,3.8-1.9,6.5-3.5,8.1c-1.7,1.5-4,2.3-7,2.3c-3.8,0-5.7-0.7-5.7-2.1c0-0.6,0.2-1.1,0.6-1.5s1-0.7,1.6-0.7c0.5,0,1.2,0.1,2,0.3
			c0.9,0.2,1.7,0.3,2.3,0.3c1.5,0,2.7-0.5,3.6-1.4C571.4,37.6,572.1,36.1,572.5,34.1z M575,23.1c-0.7-0.4-1.3-0.6-2-0.6
			c-2,0-3.6,0.7-4.7,2.2c-1.1,1.4-1.7,3.1-1.7,4.8c0,1.7,0.8,2.6,2.3,2.6c0.8,0,1.6-0.4,2.5-1.2c0.9-0.8,1.5-1.6,1.9-2.4
			C573.7,27.5,574.3,25.8,575,23.1z"/>
		<linearGradient id="SVGID_32_" gradientUnits="userSpaceOnUse" x1="7.1719" y1="26.7478" x2="595.6563" y2="26.7478">
			<stop  offset="0" style="stop-color:#BE9A4F"/>
			<stop  offset="0.414" style="stop-color:#5D2100"/>
			<stop  offset="0.6899" style="stop-color:#814B14"/>
			<stop  offset="0.9173" style="stop-color:#DCB663"/>
			<stop  offset="1" style="stop-color:#D8AA3C"/>
		</linearGradient>
		<path class="st31" d="M583.8,30.2c0.9,1.1,2.2,1.6,4,1.6c1.4,0,2.6-0.3,3.7-0.9c1-0.5,1.7-0.8,2.2-0.8c0.9,0,1.4,0.4,1.4,1.2
			c0,1.2-0.8,2.2-2.5,3c-1.6,0.8-3.4,1.2-5.4,1.2c-2.4,0-4.3-0.5-5.6-1.6s-2-2.5-2-4.4c0-2.6,0.9-5,2.7-7.4c1.8-2.4,4.2-3.6,7.2-3.6
			c2,0,3.5,0.3,4.6,1c1.1,0.7,1.6,1.6,1.6,2.8c0,1.1-0.4,2.1-1.3,2.9c-0.9,0.8-2.5,1.7-5,2.6L583.8,30.2z M584,26.2l3.8-1.5
			c1.4-0.6,2.6-1.2,3.6-1.8c-0.6-0.4-1.5-0.6-2.6-0.6C586.9,22.3,585.3,23.6,584,26.2z"/>
	</g>
</g>
</svg>
